<?xml version="1.0" encoding="UTF-8" standalone="no"?>
<!-- Generator: Adobe Illustrator 16.0.0, SVG Export Plug-In . SVG Version: 6.00 Build 0)  -->

<svg
   version="1.1"
   id="Capa_1"
   x="0px"
   y="0px"
   width="485.213px"
   height="485.212px"
   viewBox="0 0 485.213 485.212"
   style="enable-background:new 0 0 485.213 485.212;"
   xml:space="preserve"
   sodipodi:docname="mediation.svg"
   inkscape:version="1.2.2 (732a01da63, 2022-12-09)"
   inkscape:export-filename="mediation.png"
   inkscape:export-xdpi="96"
   inkscape:export-ydpi="96"
   xmlns:inkscape="http://www.inkscape.org/namespaces/inkscape"
   xmlns:sodipodi="http://sodipodi.sourceforge.net/DTD/sodipodi-0.dtd"
   xmlns="http://www.w3.org/2000/svg"
   xmlns:svg="http://www.w3.org/2000/svg"><defs
   id="defs299" /><sodipodi:namedview
   id="namedview297"
   pagecolor="#ffffff"
   bordercolor="#000000"
   borderopacity="0.25"
   inkscape:showpageshadow="2"
   inkscape:pageopacity="0.0"
   inkscape:pagecheckerboard="0"
   inkscape:deskcolor="#d1d1d1"
   showgrid="false"
   inkscape:zoom="2.1166006"
   inkscape:cx="144.09899"
   inkscape:cy="242.36977"
   inkscape:window-width="2560"
   inkscape:window-height="1369"
   inkscape:window-x="-8"
   inkscape:window-y="-8"
   inkscape:window-maximized="1"
   inkscape:current-layer="Capa_1" />
<g
   id="g264">
	<path
   d="M485.212,272.93v-60.648h-48.034c-2.193-14.125-5.801-27.75-10.842-40.72l41.528-23.991l-30.332-52.535l-41.462,23.956   c-8.882-10.958-18.832-20.967-29.846-29.823l23.979-41.488l-52.533-30.327l-23.988,41.551   c-12.971-5.036-26.594-8.678-40.749-10.841V0h-60.65v48.068c-14.097,2.159-27.72,5.834-40.695,10.837l-23.984-41.551l-52.54,30.327   l23.928,41.493c-10.956,8.853-20.964,18.864-29.79,29.818L47.682,95.036l-30.327,52.507l41.579,24.019   c-5.031,12.97-8.679,26.595-10.837,40.72H0.001v60.648h48.097c2.158,14.128,5.806,27.751,10.837,40.726l-41.579,23.988   l30.327,52.533l41.521-23.956c8.826,10.958,18.834,20.964,29.79,29.822l-23.928,41.49l52.54,30.322l23.988-41.547   c12.97,5.036,26.593,8.648,40.69,10.838v48.065h60.65v-48.065c14.155-2.189,27.783-5.802,40.749-10.838l23.988,41.547   l52.542-30.322l-23.988-41.49c11.014-8.858,20.964-18.864,29.854-29.855l41.458,23.961l30.327-52.505l-41.528-23.988   c5.041-12.975,8.648-26.598,10.847-40.726H485.212L485.212,272.93z M242.607,379.074c-75.341,0-136.468-61.124-136.468-136.468   c0-75.368,61.127-136.465,136.468-136.465s136.47,61.097,136.47,136.465C379.077,317.95,317.948,379.074,242.607,379.074z"
   id="path262" />
</g>
<g
   id="g266">
</g>
<g
   id="g268">
</g>
<g
   id="g270">
</g>
<g
   id="g272">
</g>
<g
   id="g274">
</g>
<g
   id="g276">
</g>
<g
   id="g278">
</g>
<g
   id="g280">
</g>
<g
   id="g282">
</g>
<g
   id="g284">
</g>
<g
   id="g286">
</g>
<g
   id="g288">
</g>
<g
   id="g290">
</g>
<g
   id="g292">
</g>
<g
   id="g294">
</g>
<text
   xml:space="preserve"
   style="font-size:206.937px;fill:#000000;stroke-width:1.0778"
   x="131.05568"
   y="324.41788"
   id="text355"
   transform="scale(1.0777969,0.92781859)"><tspan
     sodipodi:role="line"
     id="tspan353"
     x="131.05568"
     y="324.41788"
     style="font-style:normal;font-variant:normal;font-weight:bold;font-stretch:normal;font-size:206.937px;font-family:sans-serif;-inkscape-font-specification:'sans-serif Bold';stroke-width:1.0778">M</tspan></text><path
   sodipodi:type="star"
   style="fill:#000000"
   id="path407"
   inkscape:flatsided="false"
   sodipodi:sides="3"
   sodipodi:cx="225.83383"
   sodipodi:cy="249.92908"
   sodipodi:r1="31.356968"
   sodipodi:r2="15.678484"
   sodipodi:arg1="-2.6037571"
   sodipodi:arg2="-1.5565596"
   inkscape:rounded="0"
   inkscape:randomized="0"
   d="m 198.90386,233.86558 27.15317,0.3866 27.15318,0.3866 -13.91139,23.32204 -13.9114,23.32205 -13.24178,-23.70864 z"
   inkscape:transform-center-x="-0.31234678"
   inkscape:transform-center-y="8.1783686"
   transform="matrix(1.3994678,0,0,1.0697465,-73.707801,4.271326)" /></svg>
